<?xml version="1.0" encoding="utf-8"?>
<!-- Generator: Adobe Illustrator 25.0.1, SVG Export Plug-In . SVG Version: 6.00 Build 0)  -->
<svg version="1.1" id="Layer_1" xmlns="http://www.w3.org/2000/svg" xmlns:xlink="http://www.w3.org/1999/xlink" x="0px" y="0px"
	 viewBox="0 0 1700.79 1133.86" style="enable-background:new 0 0 1700.79 1133.86;" xml:space="preserve">
<style type="text/css">
	.st0{fill:#E50914;}
	.st1{fill:none;stroke:#E50914;stroke-width:47;stroke-miterlimit:10;}
	.st2{font-family:'CamarRegular';}
	.st3{font-size:867.8175px;}
</style>
<g>
	<g>
		<path class="st0" d="M566.13,149.91c-221.02,0-400.83,179.81-400.83,400.83s179.81,400.83,400.83,400.83
			s400.83-179.81,400.83-400.83S787.15,149.91,566.13,149.91z M282.01,539.36c-2.68-1.95-5.14-4.24-7.31-6.86
			c-7.79-9.36-10.85-21.54-8.41-33.42c6.07-29.48,15.44-58.34,27.86-85.76c5-11.05,14.64-19.1,26.45-22.1
			c11.9-3.02,24.27-0.5,34.1,6.91l34.42,26.09c14.84,11.25,20.36,30.68,13.41,47.26c-5.98,14.28-10.82,29.18-14.39,44.27
			c-4.12,17.49-20.01,29.97-38.62,30.35l-43.18,0.87C297.48,547.14,289,544.44,282.01,539.36z M494.78,755.31l-12.51,41.34
			c-2.57,8.49-7.76,15.72-14.75,20.79c-2.68,1.95-5.62,3.58-8.78,4.84c-11.31,4.51-23.84,3.66-34.38-2.33
			c-26.16-14.88-50.71-32.71-72.96-53c-8.96-8.17-13.64-19.83-12.84-31.98c0.8-12.25,7.03-23.24,17.11-30.3l35.45-24.67
			c15.28-10.64,35.47-9.88,49.09,1.85c11.73,10.11,24.4,19.31,37.66,27.36C493.21,718.52,500.17,737.49,494.78,755.31z
			 M566.13,611.35c-33.48,0-60.61-27.14-60.61-60.61c0-33.48,27.14-60.61,60.61-60.61c33.48,0,60.61,27.14,60.61,60.61
			C626.75,584.21,599.61,611.35,566.13,611.35z M590.96,370.65c-15.43-1.28-31.09-1.28-46.55,0c-17.91,1.48-34.68-9.77-40.8-27.35
			l-14.18-40.8c-2.91-8.37-2.96-17.28-0.29-25.49c1.02-3.15,2.45-6.2,4.26-9.07c6.5-10.3,17.13-16.98,29.19-18.32
			c29.91-3.34,60.25-3.34,90.18,0c12.05,1.35,22.69,8.02,29.19,18.32c6.55,10.38,7.98,22.93,3.97,34.57l-14.17,40.8
			C625.65,360.89,608.87,372.14,590.96,370.65z M778.35,768.77c-22.24,20.28-46.78,38.12-72.95,53.01
			c-10.54,6-23.07,6.85-34.38,2.33c-11.4-4.55-19.93-13.86-23.53-25.63l-12.51-41.34c-5.4-17.82,1.56-36.79,16.93-46.11
			c13.24-8.04,25.91-17.24,37.66-27.36c13.62-11.73,33.8-12.49,49.08-1.85l35.45,24.68c7.28,5.06,12.55,12.24,15.22,20.45
			c1.02,3.15,1.66,6.45,1.89,9.85C791.99,748.94,787.31,760.59,778.35,768.77z M826.88,549.92l-43.18-0.87
			c-18.62-0.38-34.5-12.86-38.63-30.35c-3.55-15.07-8.39-29.97-14.38-44.27c-6.95-16.57-1.43-36,13.41-47.25l34.42-26.09
			c7.07-5.36,15.52-8.15,24.15-8.15c3.31,0,6.65,0.41,9.95,1.25c11.8,3,21.44,11.05,26.44,22.1c12.42,27.42,21.8,56.27,27.87,85.76
			c2.45,11.88-0.62,24.06-8.41,33.42C850.68,544.91,839.18,550.14,826.88,549.92z"/>
	</g>
	<line class="st1" x1="566.13" y1="927.84" x2="1330.8" y2="927.84"/>
	<text transform="matrix(1.0884 0 0 1 867.7603 951.5673)" class="st2 st3">M</text>
</g>
</svg>
