<?xml version="1.0" encoding="utf-8"?>
<!-- Generator: Adobe Illustrator 25.0.1, SVG Export Plug-In . SVG Version: 6.00 Build 0)  -->
<svg version="1.1" id="Layer_1" xmlns="http://www.w3.org/2000/svg" xmlns:xlink="http://www.w3.org/1999/xlink" x="0px" y="0px"
	 viewBox="0 0 2834.65 1133.86" style="enable-background:new 0 0 2834.65 1133.86;" xml:space="preserve">
<style type="text/css">
	.st0{fill:#E50914;}
	.st1{fill:none;stroke:#E50914;stroke-width:41;stroke-miterlimit:10;}
	.st2{fill:#FFFFFF;}
</style>
<g>
	<g>
		<path class="st0" d="M453.21,210.88C258.45,210.88,100,369.33,100,564.09s158.45,353.22,353.22,353.22
			s353.22-158.45,353.22-353.22S647.98,210.88,453.21,210.88z M202.84,554.07c-2.36-1.71-4.53-3.74-6.45-6.04
			c-6.86-8.25-9.56-18.98-7.41-29.45c5.35-25.98,13.61-51.41,24.56-75.58c4.41-9.74,12.9-16.83,23.3-19.47
			c10.49-2.66,21.39-0.44,30.05,6.09l30.33,22.99c13.08,9.91,17.94,27.04,11.82,41.64c-5.27,12.59-9.54,25.71-12.68,39.01
			c-3.63,15.41-17.63,26.41-34.03,26.74l-38.06,0.77C216.47,560.93,209,558.54,202.84,554.07z M390.33,744.36l-11.03,36.43
			c-2.26,7.48-6.84,13.85-13,18.32c-2.36,1.71-4.95,3.15-7.74,4.26c-9.96,3.98-21.01,3.23-30.3-2.06
			c-23.06-13.11-44.69-28.83-64.29-46.71c-7.9-7.2-12.02-17.47-11.32-28.18c0.71-10.8,6.19-20.48,15.07-26.7l31.24-21.74
			c13.47-9.38,31.26-8.71,43.26,1.63c10.34,8.9,21.5,17.02,33.18,24.11C388.95,711.95,395.09,728.66,390.33,744.36z M453.21,617.51
			c-29.5,0-53.41-23.91-53.41-53.41c0-29.5,23.91-53.41,53.41-53.41c29.5,0,53.41,23.91,53.41,53.41
			C506.63,593.59,482.71,617.51,453.21,617.51z M475.09,405.4c-13.6-1.13-27.4-1.13-41.02,0c-15.78,1.31-30.57-8.61-35.95-24.11
			l-12.49-35.95c-2.56-7.38-2.61-15.22-0.26-22.46c0.9-2.77,2.16-5.46,3.75-8c5.72-9.07,15.1-14.96,25.72-16.15
			c26.36-2.94,53.1-2.94,79.47,0c10.62,1.19,20,7.07,25.72,16.15c5.77,9.15,7.03,20.21,3.5,30.46l-12.49,35.95
			C505.66,396.79,490.88,406.71,475.09,405.4z M640.22,756.23c-19.6,17.88-41.23,33.59-64.29,46.71c-9.29,5.28-20.33,6.03-30.3,2.05
			c-10.05-4.01-17.56-12.22-20.74-22.59l-11.03-36.43c-4.76-15.71,1.38-32.42,14.92-40.64c11.66-7.08,22.83-15.19,33.19-24.11
			c12-10.33,29.79-11,43.25-1.63l31.24,21.75c6.41,4.46,11.06,10.78,13.41,18.02c0.9,2.77,1.47,5.69,1.66,8.68
			C652.25,738.75,648.12,749.02,640.22,756.23z M682.99,563.38l-38.05-0.77c-16.41-0.33-30.4-11.33-34.04-26.74
			c-3.13-13.28-7.4-26.41-12.67-39.01c-6.12-14.6-1.26-31.73,11.82-41.64l30.33-22.99c6.23-4.72,13.67-7.18,21.28-7.18
			c2.92,0,5.86,0.36,8.77,1.1c10.4,2.64,18.89,9.74,23.3,19.47c10.94,24.16,19.21,49.59,24.56,75.58
			c2.15,10.47-0.55,21.2-7.41,29.45C703.96,558.95,693.83,563.57,682.99,563.38z"/>
	</g>
	<path class="st1" d="M422.69,896.06c0,0,337.55,21.84,468.22-73.44s166.06-133.39,337.55-138.83
		c171.5-5.44,296.72,211.28,411.05,213.17c114.33,1.89,198.72-213.27,421.94-213.27c223.22,0,206.66,218.68,446.33,218.68
		s158,0,158,0"/>
	<g>
		<path class="st2" d="M727.4,916.63c9.73-33.44,14.61-90.91,14.61-172.41c0-58-5.08-97.59-15.24-118.76
			c-2.54-5.29-5.4-10.27-8.58-14.92l-10.47-14.61h110.17c-3.18,12.49-5.29,22.44-6.35,29.85l-2.22,19.05
			c24.55-36.83,55.82-55.25,93.82-55.25c37.99,0,62.6,20.64,73.82,61.92c16.71-28.58,38.84-47.52,66.36-56.84
			c9.74-3.38,20.69-5.08,32.86-5.08c12.18,0,23.18,2.6,33.02,7.78c9.85,5.19,18.15,12.54,24.93,22.06
			c13.34,19.26,20.01,45.62,20.01,79.07v33.97c0,64.77,0.9,105.36,2.69,121.76c1.8,16.41,3.12,27.27,3.97,32.55
			c1.27,9.32,3.39,19.26,6.35,29.85h-93.66c9.31-31.95,13.97-89.43,13.97-172.41c0-33.66-1.7-56.26-5.08-67.8
			c-3.39-11.53-7.78-19.89-13.18-25.08c-5.39-5.19-12.75-7.78-22.06-7.78c-27.31,0-49.01,16.09-65.09,48.26v40.64
			c0,64.77,0.9,105.36,2.69,121.76c1.8,16.41,3.12,27.27,3.97,32.55c1.27,9.32,3.39,19.26,6.35,29.85H901.4
			c9.53-32.59,14.28-90.06,14.28-172.41c0-34.5-1.69-57.31-5.08-68.43c-3.39-11.11-7.73-19.26-13.01-24.44
			c-5.29-5.19-12.55-7.78-21.75-7.78c-9.21,0-17.52,1.8-24.93,5.4c-7.41,3.6-14.08,8.37-20,14.29
			c-11.23,11.01-20.01,25.2-26.36,42.55c-0.42,6.15-0.64,12.5-0.64,19.05v19.37c0,81.5,4.87,138.96,14.61,172.41H727.4z"/>
		<path class="st2" d="M1313.12,589.59c89.12,0,133.68,48.16,133.68,144.47c0,58.42-12.28,104.67-36.83,138.75
			c-23.93,33.45-56.21,50.17-96.85,50.17s-72.92-16.71-96.84-50.17c-24.56-34.08-36.83-80.33-36.83-138.75
			C1179.45,637.75,1224.01,589.59,1313.12,589.59z M1272.01,649.92c-8.37,19.05-12.54,51.12-12.54,96.21
			c0,96.74,17.88,145.1,53.65,145.1c19.05,0,32.76-12.9,41.12-38.74c8.37-25.82,12.55-61.28,12.55-106.36s-4.18-77.16-12.55-96.21
			c-8.36-19.05-22.06-28.58-41.12-28.58C1294.07,621.34,1280.36,630.87,1272.01,649.92z"/>
		<path class="st2" d="M1527.36,595.94c-3.81,9.32-5.72,19.52-5.72,30.64c0,11.11,0.85,20.96,2.54,29.52
			c1.69,8.58,4.02,18.58,6.99,30.01l34.29,121.93l12.07,39.06c12.49-37.47,20.74-62.76,24.77-75.89l11.43-38.74
			c12.49-42.55,18.74-68.9,18.74-79.06c0-10.16-0.48-17.62-1.43-22.38c-0.96-4.77-2.28-9.05-3.97-12.86
			c-2.12-5.72-6.24-13.12-12.38-22.23h115.58c-15.67,21.59-26.15,37.78-31.44,48.58l-11.74,24.14c-1.91,3.81-4.56,9.31-7.94,16.51
			c-41.49,94.62-62.23,158.01-62.23,190.19c0,14.61,2.75,28.37,8.26,41.28h-114.31c5.08-8.04,8.09-15.6,9.05-22.7
			c0.95-7.09,1.43-14.39,1.43-21.91c0-7.51-1.91-18.36-5.72-32.54s-8.79-30.27-14.93-48.26c-6.14-17.99-13.17-36.99-21.12-57
			c-7.93-20-16.03-39.1-24.28-57.3c-18.63-40.85-33.66-67.84-45.09-80.97H1527.36z"/>
		<path class="st2" d="M1721.28,916.63c9.73-33.44,14.61-90.91,14.61-172.41c0-57.36-5.08-96.85-15.24-118.44
			c-2.54-5.5-5.4-10.58-8.58-15.24l-10.47-14.61h112.71c-9.31,34.93-13.97,88.74-13.97,161.46c0,72.71,4.87,125.79,14.61,159.23
			H1721.28z M1807.48,510.53c-4.34,6.99-9.58,12.86-15.71,17.62c-6.15,4.76-13.13,7.14-20.96,7.14c-7.83,0-14.82-2.38-20.96-7.14
			c-6.15-4.77-11.33-10.64-15.56-17.62c-8.68-14.39-13.01-29.63-13.01-45.72c0-19.47,8.89-32.49,26.67-39.05
			c6.35-2.33,14.07-3.49,23.17-3.49c25.19,0,40.85,8.89,46.99,26.67c1.91,5.08,2.86,10.75,2.86,16.99c0,6.24-1.17,13.49-3.5,21.75
			C1815.15,495.93,1811.81,503.55,1807.48,510.53z"/>
		<path class="st2" d="M2046.63,808.68c7.62,5.08,11.43,13.92,11.43,26.51c0,12.6-1.69,23.66-5.08,33.18
			c-3.39,9.53-9.31,18.42-17.78,26.67c-19.05,18.63-48.05,27.94-87,27.94c-45.3,0-79.8-16.71-103.51-50.17
			c-20.96-29.85-31.43-70.17-31.43-120.97c0-51.23,14.17-91.45,42.55-120.66c26.87-27.73,63.29-41.59,109.22-41.59
			c31.95,0,56.94,9.32,74.93,27.94c14.17,14.82,21.27,31.91,21.27,51.28c0,19.37-3.76,36.83-11.27,52.39
			c-7.52,15.55-18.58,28.95-33.18,40.17c-30.06,23.28-72.07,35.56-126.05,36.83c4.45,42.55,17.78,71.01,40.01,85.41
			c8.04,5.08,18.73,7.62,32.06,7.62s27.52-6.99,42.55-20.96C2020.38,856.3,2034.14,835.78,2046.63,808.68z M1888.83,768.03
			c66.88-4.45,100.33-36.83,100.33-97.16c0-22.65-6.78-37.89-20.32-45.72c-4.66-2.54-10.8-3.81-18.42-3.81s-15.3,2.33-23.02,6.99
			c-7.73,4.66-14.44,12.28-20.16,22.86c-12.28,23.07-18.42,58.75-18.42,107.01V768.03z"/>
		<path class="st2" d="M2064.01,916.63c9.74-33.44,14.61-90.91,14.61-172.41c0-58-4.66-97.59-13.97-118.76
			c-3.81-8.68-10.58-18.52-20.32-29.53h112.72c-3.81,13.34-6.88,31.65-9.21,54.93c19.9-24.97,47.63-42.65,83.19-53.02
			c15.24-4.45,26.36-11.43,33.34-20.96c6.99,16.72,10.47,31.12,10.47,43.18s-0.64,23.23-1.91,33.5
			c-1.27,10.27-3.18,20.28-5.72,30.01c-5.5,20.96-12.81,37.27-21.9,48.9c-7.83-41.28-20.01-65.41-36.52-72.39
			c-19.05-8.26-37.68,2.97-55.88,33.66c-3.81,6.35-6.99,13.13-9.53,20.32c-0.21,4.88-0.31,9.85-0.31,14.93c0,5.08,0,10.16,0,15.24
			c0,81.5,4.87,138.96,14.61,172.41H2064.01z"/>
		<path class="st2" d="M2406.84,589.59c89.11,0,133.67,48.16,133.67,144.47c0,58.42-12.28,104.67-36.83,138.75
			c-23.92,33.45-56.2,50.17-96.84,50.17s-72.93-16.71-96.85-50.17c-24.55-34.08-36.83-80.33-36.83-138.75
			C2273.17,637.75,2317.73,589.59,2406.84,589.59z M2365.73,649.92c-8.37,19.05-12.55,51.12-12.55,96.21
			c0,96.74,17.89,145.1,53.66,145.1c19.05,0,32.75-12.9,41.12-38.74c8.36-25.82,12.54-61.28,12.54-106.36s-4.18-77.16-12.54-96.21
			c-8.37-19.05-22.06-28.58-41.12-28.58C2387.79,621.34,2374.08,630.87,2365.73,649.92z"/>
		<path class="st2" d="M2612.82,777.56c0,68.58,4.12,117.06,12.38,145.42h-93.66c5.92-20.52,9.63-44.76,11.11-72.71
			c3.18-67.52,4.77-119.91,4.77-157.17c0-37.26-0.11-62.28-0.32-75.09c-0.21-12.8-0.42-25.66-0.64-38.58
			c-1.27-45.93-3.44-74.88-6.51-86.84c-3.06-11.96-5.93-20.64-8.57-26.04c-2.65-5.4-5.66-10.32-9.05-14.77l-10.47-14.61h115.89
			c-5.93,21.38-9.36,41.86-10.32,61.44c-0.95,19.59-1.69,36.89-2.22,51.92c-0.53,15.03-1.01,30.69-1.43,46.99
			c-0.42,27.1-0.64,59.38-0.64,96.84L2612.82,777.56z"/>
		<path class="st2" d="M2719.73,777.56c0,68.58,4.12,117.06,12.38,145.42h-93.66c5.92-20.52,9.63-44.76,11.11-72.71
			c3.18-67.52,4.77-119.91,4.77-157.17c0-37.26-0.11-62.28-0.32-75.09c-0.21-12.8-0.42-25.66-0.64-38.58
			c-1.27-45.93-3.44-74.88-6.51-86.84c-3.06-11.96-5.93-20.64-8.57-26.04c-2.65-5.4-5.66-10.32-9.05-14.77l-10.47-14.61h115.89
			c-5.93,21.38-9.36,41.86-10.32,61.44c-0.95,19.59-1.69,36.89-2.22,51.92c-0.53,15.03-1.01,30.69-1.43,46.99
			c-0.42,27.1-0.64,59.38-0.64,96.84L2719.73,777.56z"/>
	</g>
</g>
</svg>
